<?xml version="1.0" encoding="UTF-8" standalone="no"?>
<!-- Created with Inkscape (http://www.inkscape.org/) -->

<svg
   xmlns:dc="http://purl.org/dc/elements/1.1/"
   xmlns:cc="http://creativecommons.org/ns#"
   xmlns:rdf="http://www.w3.org/1999/02/22-rdf-syntax-ns#"
   xmlns:svg="http://www.w3.org/2000/svg"
   xmlns="http://www.w3.org/2000/svg"
   xmlns:sodipodi="http://sodipodi.sourceforge.net/DTD/sodipodi-0.dtd"
   xmlns:inkscape="http://www.inkscape.org/namespaces/inkscape"
   width="64"
   height="64"
   viewBox="0 0 16.933333 16.933334"
   version="1.1"
   id="svg5569"
   inkscape:version="0.92.3 (2405546, 2018-03-11)"
   sodipodi:docname="zombie_infect.svg">
  <metadata
     id="metadata3923">
    <rdf:RDF>
      <cc:Work
         rdf:about="">
        <dc:format>image/svg+xml</dc:format>
        <dc:type
           rdf:resource="http://purl.org/dc/dcmitype/StillImage" />
        <dc:title></dc:title>
      </cc:Work>
    </rdf:RDF>
  </metadata>
  <defs
     id="defs3921" />
  <sodipodi:namedview
     pagecolor="#ffffff"
     bordercolor="#666666"
     borderopacity="1"
     objecttolerance="10"
     gridtolerance="10"
     guidetolerance="10"
     inkscape:pageopacity="0"
     inkscape:pageshadow="2"
     inkscape:window-width="1920"
     inkscape:window-height="1017"
     id="namedview3919"
     showgrid="false"
     inkscape:pagecheckerboard="true"
     inkscape:zoom="7.375"
     inkscape:cx="112.56623"
     inkscape:cy="18.902074"
     inkscape:window-x="-8"
     inkscape:window-y="-8"
     inkscape:window-maximized="1"
     inkscape:current-layer="layer1" />
  <g
     inkscape:label="Layer 1"
     inkscape:groupmode="layer"
     id="layer1"
     transform="translate(0,-280.06665)">
    <path
       style="display:inline;opacity:1;fill:#ffffff;fill-opacity:1;stroke-width:0.08928572"
       d="m 41.509352,24.309556 c -0.86124,-3.576589 -0.643499,-1.764545 -1.419428,-2.096364 -0.403991,-0.172763 -1.02462,-0.122973 -1.299717,0.219631 -0.355084,0.442216 0.600062,1.460667 0.08555,1.699245 -0.521221,0.241691 -0.683463,-1.169616 -1.257928,-1.178298 -0.878529,-0.01328 -1.18346,1.366488 -1.977321,1.743016 -3.754207,1.780619 -8.510735,3.731806 -12.299496,2.025946 -1.112129,-0.500728 -1.52713,-1.952561 -1.948035,-3.097287 -0.0596,-0.162091 -0.03062,-0.345624 -0.07397,-0.512794 -0.119043,-0.459044 -0.359815,-0.878483 -0.50679,-1.329361 -0.116112,-0.356198 -0.295461,-1.084404 -0.295461,-1.084404 0,0 -0.425141,-1.864629 -0.480362,-2.814886 -0.08467,-1.456958 0.143898,-2.91534 0.231638,-4.372116 0.03977,-0.660372 -0.02206,-1.337213 0.133629,-1.980201 0.07324,-0.302472 0.484163,-0.567494 0.370218,-0.857096 -0.231877,-0.589341 -1.419204,-0.217086 -1.739929,-0.7631855 -0.890312,-1.5159348 -0.313415,-3.6927949 0.502267,-5.2501569 0.484663,-0.9253562 1.420841,-1.6430852 2.394377,-2.0217813 1.268091,-0.4932752 4.078572,-0.1662225 4.078572,-0.1662225 0,0 0.939478,1.722174 1.407713,2.5840788 0.173302,0.3190059 0.377376,0.6232572 0.518793,0.9576218 0.393875,0.9312719 0.809211,1.8881747 0.907342,2.894542 0.05861,0.6010902 -0.514643,1.2868766 -0.197747,1.8009996 0.348187,0.564889 1.214023,0.568622 1.865435,0.695097 1.07488,0.208693 2.252404,-0.279769 3.283671,0.08821 0.412423,0.147161 0.623392,0.665799 1.038902,0.804003 1.492314,0.496363 3.219196,0.400664 4.717456,-0.07745 0.425271,-0.13571 0.674406,-0.637232 1.104245,-0.757694 0.746927,-0.209326 1.549636,0.07587 2.323608,0.127697 0.877694,0.05877 1.756069,0.300929 2.630785,0.207801 0.369524,-0.03934 0.728755,-0.16808 1.067979,-0.319813 0.388341,-0.173703 0.677821,-0.554059 1.087877,-0.667354 1.414579,-0.390835 4.402464,0.04894 4.402464,0.04894 l 0.342846,1.135969 c 0,0 1.983673,0.497133 -1.309291,2.99266 -0.434565,0.329328 -1.482139,-0.103448 -1.7315,0.381446 -0.281843,0.548056 -1.403785,-1.743507 -1.451289,-1.129061 -0.04557,0.589447 -2.835703,0.202744 -2.835703,0.202744 l -1.438183,1.534062 c 0,0 -0.91114,0.943327 -1.510115,1.14233 -0.658291,0.21871 -1.47957,-0.358341 -2.080976,-0.01267 -0.232714,0.133759 -0.474866,0.440186 -0.401072,0.698259 0.174735,0.611091 1.066902,0.734665 1.680223,0.901404 0.430439,0.11702 0.933869,-0.139029 1.337195,0.05149 0.258715,0.122212 0.314534,0.513273 0.570297,0.64155 0.588031,0.294926 1.380784,-0.131066 1.966307,0.16881 0.609213,0.312008 1.096137,0.917235 1.338149,1.557485 0.307043,0.812289 0.03386,2.604929 0.03386,2.604929 0,0 -0.830918,0.36923 -1.248317,0.281373 -0.462922,-0.09744 -0.672419,-0.907256 -1.141195,-0.843683 -0.357891,0.04854 -0.354966,0.673171 -0.668239,0.852899 -0.615515,0.353127 -2.109333,0.287635 -2.109333,0.287635 z"
       id="path6391"
       inkscape:connector-curvature="0"
       transform="matrix(0.26458333,0,0,0.26458333,0,280.06665)"
       sodipodi:nodetypes="caaaaaaaaacaaaaaaacaaaaaaaaaaaaaccsssccaaaaaaaacaaac"
       inkscape:highlight-color="3930111979" />
    <path
       style="display:inline;opacity:1;fill:#ffffff;fill-opacity:1;stroke:none;stroke-width:0.02362351;stroke-opacity:1"
       d="m 6.5988044,295.93706 c -0.1115756,0.29521 0.1861293,0.42864 0.1861293,0.42864 0.9345563,-0.11173 1.8996963,0.17399 1.9329464,-0.0778 0.022483,-0.17026 -0.010713,-0.39382 -0.094549,-0.56561 -0.078416,-0.16068 -0.2482355,-0.25781 -0.3626272,-0.39522 -0.058907,-0.0708 -0.1843406,-0.13026 -0.1662945,-0.22054 0.022862,-0.11438 0.2395137,-0.0784 0.3018795,-0.17695 0.1340242,-0.21181 -0.020584,-0.51379 0.065834,-0.74908 0.032199,-0.0877 0.1290932,-0.14121 0.1619535,-0.22863 0.1749944,-0.46555 0.070914,-0.99367 0.1530745,-1.4842 0.02046,-0.12215 0.084396,-0.36185 0.084396,-0.36185 0,0 0.2916107,0.2819 0.434455,0.42583 0.1530179,0.15418 0.3280577,0.29088 0.452622,0.46884 0.093501,0.13358 0.118346,0.3079 0.2143477,0.4397 0.091795,0.12602 0.2497094,0.19505 0.3373134,0.32402 0.09915,0.14597 0.106796,0.34035 0.20021,0.49006 0.097,0.15545 0.278129,0.24944 0.365709,0.41039 0.05093,0.0936 0.03428,0.21441 0.08489,0.30818 0.12396,0.22965 0.516895,0.58804 0.516895,0.58804 0,0 0.783619,0.18061 1.090828,-0.0139 0.163222,-0.10338 0.10304,-0.40075 0.254426,-0.52079 0.08337,-0.0661 0.241518,0.009 0.311202,-0.0711 0.08387,-0.0968 -0.0567,-0.28998 0.0314,-0.38292 0.101017,-0.10657 0.307117,0.0101 0.436481,-0.0594 0.131756,-0.0708 0.242538,-0.19748 0.295996,-0.33715 0.09793,-0.25588 0.272616,-0.74825 0.0087,-0.82189 -0.246933,-0.0689 -0.773313,-0.0972 -0.773313,-0.0972 -0.141005,-0.0514 -0.307215,0.3292 -0.307215,0.3292 -0.222847,-0.0288 -0.326609,-0.31265 -0.456384,-0.49608 -0.107155,-0.15146 -0.168259,-0.33091 -0.260834,-0.49169 -0.148179,-0.25736 -0.306867,-0.50873 -0.471039,-0.75619 -0.297532,-0.44847 -0.755637,-0.81039 -0.930787,-1.31928 -0.0329,-0.0956 0.01886,-0.20757 -0.01471,-0.30292 -0.432266,-1.22775 -0.651372,-2.17444 -0.651372,-2.17444 0,0 0.155307,-0.62905 -0.1278193,-0.66419 -0.1431615,-0.0178 -0.00906,-0.47954 -0.1531509,-0.48654 -0.162867,-0.008 -0.137478,-0.2821 -0.2845529,-0.3525 -0.141096,-0.0675 -3.3704227,0.3953 -3.3704227,0.3953 0,0 -2.526e-4,0.83421 0.019516,0.95061 0.055155,0.32469 -0.00979,0.60321 0.00481,0.9043 0.00681,0.14044 -0.00744,0.28718 0.038572,0.42004 0.041343,0.11937 0.2061832,0.31797 0.2061832,0.31797 0.054496,0.32969 0.1603786,0.24375 0.2067037,0.38043 0.1009956,0.29799 0.1202725,0.61893 0.146496,0.93247 0.028534,0.34116 0.01742,0.6847 0.011352,1.027 -0.00536,0.30243 -0.1425572,0.61246 -0.042186,0.90645 0.1054126,0.30876 -0.3133601,0.68587 -0.2350814,1.00346 0.076665,0.31105 -0.2748081,0.68748 -0.2748081,0.68748 0,0 -0.089982,0.17232 -0.1039333,0.26671 -0.031683,0.21436 0.028104,0.43258 0.05072,0.64808 0.031952,0.30446 -0.2418543,0.91205 0.1199872,0.91051 0.3502367,-10e-4 0.3550324,-0.35558 0.3550324,-0.35558 z"
       id="path6399"
       inkscape:connector-curvature="0"
       sodipodi:nodetypes="cssaaaaaaacaaaaaaacaaaaaasssaaaascssscsaasaaasscaascc"
       inkscape:highlight-color="3930111979" />
  </g>
</svg>
